<?xml version="1.0" encoding="UTF-8" standalone="no"?>
<svg
   xmlns="http://www.w3.org/2000/svg"
   version="1.1"
   viewBox="0 0 200 200"
   height="200"
   width="200">

  <style>
	path {
		fill: #113885;
	}
	@media (prefers-color-scheme: dark) {
      path {
        fill: #FFFFFF;
      }
    }
  </style>
  <g
     id="g6"
     transform="translate(-129,-559)">
    <path
       id="path2"
       transform="translate(2136,-23688)"
       d="m -1957,24447 h -15 a 15,15 0 0 1 -15,-15 v -170 a 15,15 0 0 1 15,-15 15,15 0 0 1 15,15 v 140.213 a 15.06,15.06 0 0 0 15,14.785 h 40 a 15,15 0 0 1 15,15 15,15 0 0 1 -15,15 z m 0,-30 z" />
    <path
       id="path4"
       transform="translate(2196,-23688)"
       d="m -1917,24432 v -140.213 a 15.057,15.057 0 0 0 -15,-14.787 h -40 a 15,15 0 0 1 -15,-15 15,15 0 0 1 15,-15 h 70 a 15,15 0 0 1 15,15 v 170 a 15,15 0 0 1 -15,15 15,15 0 0 1 -15,-15 z" />
  </g>
</svg>
