<?xml version="1.0" encoding="UTF-8" standalone="no"?><!DOCTYPE svg PUBLIC "-//W3C//DTD SVG 1.1//EN" "http://www.w3.org/Graphics/SVG/1.1/DTD/svg11.dtd">
<svg width="100%" height="100%" viewBox="0 0 900 900" version="1.1" xmlns="http://www.w3.org/2000/svg" xmlns:xlink="http://www.w3.org/1999/xlink" xml:space="preserve" style="fill-rule:evenodd;clip-rule:evenodd;stroke-linejoin:round;stroke-miterlimit:2;">
   <path fill="currentColor" id="pathK" d="M873.574,500.517l-45.922,-52.83l22.642,-19.68l45.922,52.832c2.372,2.729 3.679,6.226 3.679,9.841c0,4.34 -1.883,8.474 -5.158,11.321c-2.725,2.373 -6.219,3.68 -9.832,3.676c-4.345,0.007 -8.485,-1.878 -11.331,-5.16Zm-94.47,-10.516l-0,-170.002c-0,-8.229 6.771,-15 15,-15c8.228,-0 15,6.771 15,15l-0,91.457l57.01,-49.559c2.728,-2.371 6.224,-3.678 9.839,-3.678c4.342,-0 8.476,1.885 11.324,5.162c2.372,2.729 3.679,6.226 3.679,9.841c0,4.34 -1.883,8.474 -5.158,11.321l-76.694,66.666l-0,38.792c-0,8.229 -6.772,15 -15,15c-8.228,-0.003 -14.998,-6.772 -15,-15Z" style="fill-rule:nonzero;"/>
   <path fill="currentColor" id="pathC" d="M734.216,505.002l-0.474,-0c-8.15,-0.09 -20.82,-1.68 -27.994,-4.709c-7.128,-3.013 -13.604,-7.381 -19.067,-12.861c-5.483,-5.464 -9.85,-11.942 -12.86,-19.072c-3.129,-7.387 -4.733,-15.33 -4.716,-23.352c-0.017,-8.023 1.587,-15.966 4.715,-23.354c3.011,-7.13 7.379,-13.608 12.86,-19.074c5.463,-5.478 11.939,-9.844 19.067,-12.854c7.248,-3.068 20.3,-4.363 28.446,-4.414l0.486,-0c8.124,0.149 14.726,6.874 14.725,15c-0.001,8.026 -6.443,14.703 -14.463,14.99l-0,0.04c-8,-0 -21.367,2.789 -27.042,8.463c-5.645,5.606 -8.816,13.245 -8.8,21.2c-0,16.258 18.24,29.557 34.571,30.008l0.432,-0c8.228,-0 15,6.771 15,15c0.002,8.083 -6.529,14.789 -14.609,15l-0.277,-0l-0,-0.011Z" style="fill-rule:nonzero;"/>
   <path fill="currentColor" id="pathA" d="M624.106,490.001l-0,-45c-0.018,-16.451 -13.55,-29.983 -30,-30c-16.451,0.017 -29.983,13.549 -30,30c0.018,16.45 13.549,29.981 30,30c7.378,0.005 14.503,-2.717 20,-7.639l-0,34.227c-6.425,2.265 -13.188,3.419 -20,3.412c-8.023,0.016 -15.967,-1.588 -23.354,-4.715c-7.13,-3.013 -13.608,-7.38 -19.074,-12.859c-5.48,-5.465 -9.846,-11.944 -12.854,-19.074c-3.13,-7.387 -4.735,-15.33 -4.718,-23.352c-0.017,-8.021 1.587,-15.964 4.715,-23.35c3.008,-7.13 7.374,-13.607 12.854,-19.072c5.467,-5.479 11.944,-9.847 19.074,-12.861c7.388,-3.129 15.333,-4.733 23.357,-4.717c8.022,-0.017 15.966,1.587 23.354,4.715c7.129,3.013 13.607,7.381 19.074,12.861c5.479,5.464 9.845,11.942 12.854,19.072c3.129,7.387 4.734,15.33 4.718,23.352l-0,45c-0,8.229 -6.772,15 -15,15c-8.229,-0 -15,-6.771 -15,-15Z" style="fill-rule:nonzero;"/>
   <path fill="currentColor" id="pathR" d="M460.105,490.001l-0,-90c-0,-8.229 6.771,-15 15,-15l29,-0c8.228,-0 15,6.771 15,15c0.003,8.074 -6.513,14.775 -14.583,15l0.586,-0l-0.01,-0c-8.135,0.034 -14.848,6.653 -14.995,14.787l-0,60.213c-0,8.229 -6.772,15 -15,15c-0.001,-0 -0.002,-0 -0.002,-0c-8.229,-0 -15,-6.771 -15,-15c-0,-0 0.004,-0 0.004,-0Z" style="fill-rule:nonzero;"/>
   <path fill="currentColor" id="pathT" d="M400.105,490.001l-0,-140.213c-0.146,-8.136 -6.863,-14.758 -15,-14.787l-40,-0c-8.229,-0 -15,-6.771 -15,-15c-0,-8.229 6.771,-15 15,-15l70,-0c8.228,-0 15,6.771 15,15l-0,170c-0,8.229 -6.772,15 -15,15c-8.229,-0 -15,-6.771 -15,-15Z" style="fill-rule:nonzero;"/>
   <path fill="currentColor" id="pathG" d="M286.75,590.288c-7.129,-3.012 -13.606,-7.38 -19.07,-12.859c-5.483,-5.465 -9.85,-11.944 -12.859,-19.076c-3.1,-7.324 -4.703,-15.194 -4.714,-23.146l-0,-0.206c-0.011,-3.978 1.57,-7.799 4.389,-10.607c2.807,-2.82 6.629,-4.402 10.608,-4.393c3.979,-0.011 7.802,1.57 10.612,4.389c2.818,2.809 4.399,6.632 4.388,10.611c0.02,16.45 13.55,29.979 30,30c16.449,-0.021 29.979,-13.55 30,-30l-0,-90c-0.02,-16.45 -13.55,-29.98 -30,-30c-16.451,0.017 -29.983,13.549 -30,30c0.019,16.45 13.549,29.981 30,30c7.378,0.005 14.504,-2.719 20,-7.643l-0,34.23c-6.424,2.267 -13.188,3.422 -20,3.414c-8.023,0.014 -15.967,-1.59 -23.355,-4.715c-7.127,-3.015 -13.604,-7.382 -19.07,-12.859c-5.483,-5.465 -9.85,-11.944 -12.859,-19.076c-3.129,-7.386 -4.733,-15.329 -4.716,-23.351c-0.016,-8.023 1.587,-15.967 4.714,-23.355c3.012,-7.129 7.379,-13.605 12.859,-19.07c5.465,-5.478 11.942,-9.845 19.07,-12.859c7.388,-3.128 15.333,-4.732 23.357,-4.716c8.022,-0.018 15.967,1.585 23.355,4.713c7.129,3.011 13.606,7.378 19.07,12.859c5.479,5.465 9.846,11.941 12.859,19.07c3.127,7.389 4.731,15.334 4.716,23.358l-0,90l0.01,-0c0.015,8.023 -1.591,15.967 -4.72,23.354c-3.01,7.131 -7.378,13.611 -12.859,19.076c-5.465,5.48 -11.942,9.847 -19.07,12.859c-7.39,3.124 -15.334,4.727 -23.357,4.711c-8.023,0.014 -15.966,-1.589 -23.354,-4.713l-0.004,-0Z" style="fill-rule:nonzero;"/>
   <path fill="currentColor" id="pathO" d="M151.748,500.286c-7.129,-3.012 -13.605,-7.379 -19.068,-12.859c-5.48,-5.464 -9.848,-11.94 -12.86,-19.068c-3.128,-7.389 -4.732,-15.334 -4.715,-23.358c-0.017,-8.021 1.587,-15.964 4.715,-23.35c3.01,-7.131 7.378,-13.608 12.86,-19.072c5.464,-5.48 11.94,-9.848 19.068,-12.861c7.389,-3.126 15.333,-4.73 23.357,-4.717l45,-0c8.228,-0 15,6.771 15,15c-0,8.229 -6.772,15 -15,15l-45,-0c-16.452,0.016 -29.984,13.549 -30,30c0.015,16.451 13.548,29.984 30,30c16.45,-0.019 29.981,-13.55 30,-30c0.006,-7.378 -2.716,-14.504 -7.638,-20l34.227,-0c2.266,6.424 3.42,13.188 3.412,20c0.013,8.024 -1.59,15.969 -4.715,23.359c-3.013,7.128 -7.381,13.604 -12.86,19.068c-5.465,5.482 -11.943,9.849 -19.074,12.859c-7.387,3.128 -15.331,4.731 -23.352,4.714c-8.024,0.017 -15.969,-1.587 -23.357,-4.715Z" style="fill-rule:nonzero;"/>
   <path fill="currentColor" id="pathL" d="M30.105,505.001l-15,-0c-8.229,-0 -15,-6.771 -15,-15l-0,-170c-0,-8.229 6.771,-15 15,-15c8.228,-0 15,6.771 15,15l-0,140.213c0.148,8.135 6.863,14.754 15,14.785l40,-0c8.228,-0 15,6.771 15,15c-0,8.229 -6.772,15 -15,15l-55,0.002Z" style="fill-rule:nonzero;"/>
</svg>